<svg width="1160" height="650" viewBox="0 0 1160 650" xmlns="http://www.w3.org/2000/svg">
  <defs>
    <linearGradient id="stormBg" x1="0%" y1="0%" x2="100%" y2="100%">
      <stop offset="0%" stop-color="#04050c"/>
      <stop offset="40%" stop-color="#0b1230"/>
      <stop offset="70%" stop-color="#131a3f"/>
      <stop offset="100%" stop-color="#05060f"/>
    </linearGradient>
    <filter id="glow" x="-40%" y="-40%" width="180%" height="180%">
      <feGaussianBlur stdDeviation="2.2" result="b"/>
      <feMerge>
        <feMergeNode in="b"/>
        <feMergeNode in="SourceGraphic"/>
      </feMerge>
    </filter>
    <radialGradient id="cloudSoft" cx="50%" cy="50%" r="50%">
      <stop offset="0%" stop-color="#2a3266" stop-opacity="0.6"/>
      <stop offset="100%" stop-color="#2a3266" stop-opacity="0"/>
    </radialGradient>
  </defs>

  <rect width="1160" height="650" rx="16" fill="url(#stormBg)"/>
  <rect x="1" y="1" width="1158" height="648" rx="15" fill="none" stroke="#9fd8ff" stroke-opacity="0.3" stroke-width="1.5"/>

  <g>
    <ellipse cx="180" cy="50" rx="200" ry="76" fill="url(#cloudSoft)"/>
    <ellipse cx="620" cy="28" rx="260" ry="72" fill="url(#cloudSoft)"/>
    <ellipse cx="980" cy="60" rx="220" ry="76" fill="url(#cloudSoft)"/>
  </g>

  <g fill="none" stroke="#cfe9ff" stroke-width="3" stroke-linejoin="round" filter="url(#glow)">
    <path d="M150,0 L130,95 L155,110 L120,235 L148,250 L110,390 L140,405 L100,650" opacity="0">
      <animate attributeName="opacity" values="0;0;0;1;0.4;0;0;0;0" keyTimes="0;0.1;0.35;0.4;0.45;0.5;0.7;0.9;1" dur="5.2s" repeatCount="indefinite"/>
    </path>
    <path d="M1010,0 L990,90 L1018,105 L985,225 L1015,242 L980,375 L1008,390 L965,650" opacity="0">
      <animate attributeName="opacity" values="0;0;0;1;0.4;0;0;0;0" keyTimes="0;0.2;0.55;0.6;0.65;0.7;0.85;0.97;1" dur="7.4s" repeatCount="indefinite" begin="2.4s"/>
    </path>
  </g>

  <rect width="1160" height="650" fill="#dcefff" opacity="0">
    <animate attributeName="opacity" values="0;0;0;0.14;0.03;0;0;0;0" keyTimes="0;0.1;0.35;0.4;0.45;0.5;0.7;0.9;1" dur="5.2s" repeatCount="indefinite"/>
  </rect>

  <g transform="translate(1092,100)">
    <path d="M-4,-34 L-26,10 L-6,10 L-14,40 L28,-6 L6,-6 L16,-34 Z" fill="#eaf6ff" filter="url(#glow)" opacity="0.9">
      <animate attributeName="opacity" values="0.55;0.9;0.55" dur="2.4s" repeatCount="indefinite"/>
    </path>
    <path d="M-4,-34 L-26,10 L-6,10 L-14,40 L28,-6 L6,-6 L16,-34 Z" fill="#ffffff" opacity="0">
      <animate attributeName="opacity" values="0;0;0;1;0;0;0" keyTimes="0;0.35;0.4;0.43;0.48;0.7;1" dur="5.2s" repeatCount="indefinite"/>
    </path>
  </g>

  <g font-family="Arial, Helvetica, sans-serif">

    <!-- Frontend -->
    <text x="580" y="66" text-anchor="middle" font-size="18" font-weight="700" fill="#eaf6ff">Frontend Technologies</text>
    <g font-size="14" font-weight="700">
      <rect x="143" y="90" width="100" height="38" rx="9" fill="#20232A"/>
      <text x="193" y="115" text-anchor="middle" fill="#61DAFB" textLength="76" lengthAdjust="spacingAndGlyphs">REACT</text>
      <rect x="257" y="90" width="145" height="38" rx="9" fill="#F7DF1E"/>
      <text x="329.5" y="115" text-anchor="middle" fill="#1a1a1a" textLength="121" lengthAdjust="spacingAndGlyphs">JAVASCRIPT</text>
      <rect x="416" y="90" width="95" height="38" rx="9" fill="#E34F26"/>
      <text x="463.5" y="115" text-anchor="middle" fill="#ffffff" textLength="71" lengthAdjust="spacingAndGlyphs">HTML5</text>
      <rect x="525" y="90" width="85" height="38" rx="9" fill="#1572B6"/>
      <text x="567.5" y="115" text-anchor="middle" fill="#ffffff" textLength="61" lengthAdjust="spacingAndGlyphs">CSS3</text>
      <rect x="624" y="90" width="120" height="38" rx="9" fill="#563D7C"/>
      <text x="684" y="115" text-anchor="middle" fill="#ffffff" textLength="96" lengthAdjust="spacingAndGlyphs">BOOTSTRAP</text>
      <rect x="758" y="90" width="130" height="38" rx="9" fill="#FF4154"/>
      <text x="823" y="115" text-anchor="middle" fill="#ffffff" textLength="106" lengthAdjust="spacingAndGlyphs">REACT HOOKS</text>
    </g>

    <!-- API & Tools -->
    <text x="580" y="184" text-anchor="middle" font-size="18" font-weight="700" fill="#eaf6ff">API &amp; Tools</text>
    <g font-size="14" font-weight="700">
      <rect x="303" y="208" width="130" height="38" rx="9" fill="#008080"/>
      <text x="368" y="233" text-anchor="middle" fill="#ffffff" textLength="106" lengthAdjust="spacingAndGlyphs">REST APIS</text>
      <rect x="447" y="208" width="100" height="38" rx="9" fill="#FF6C37"/>
      <text x="497" y="233" text-anchor="middle" fill="#ffffff" textLength="76" lengthAdjust="spacingAndGlyphs">POSTMAN</text>
      <rect x="561" y="208" width="115" height="38" rx="9" fill="#000000" stroke="#ffffff" stroke-opacity="0.15"/>
      <text x="618.5" y="233" text-anchor="middle" fill="#ffffff" textLength="91" lengthAdjust="spacingAndGlyphs">JSON</text>
      <rect x="690" y="208" width="75" height="38" rx="9" fill="#F05032"/>
      <text x="727.5" y="233" text-anchor="middle" fill="#ffffff" textLength="51" lengthAdjust="spacingAndGlyphs">GIT</text>
      <rect x="779" y="208" width="80" height="38" rx="9" fill="#2b3137"/>
      <text x="819" y="233" text-anchor="middle" fill="#ffffff" textLength="56" lengthAdjust="spacingAndGlyphs">GITHUB</text>
    </g>

    <!-- Project Management -->
    <text x="580" y="302" text-anchor="middle" font-size="18" font-weight="700" fill="#eaf6ff">Project Management</text>
    <g font-size="14" font-weight="700">
      <rect x="458" y="326" width="100" height="38" rx="9" fill="#0052CC"/>
      <text x="508" y="351" text-anchor="middle" fill="#ffffff" textLength="76" lengthAdjust="spacingAndGlyphs">JIRA</text>
      <rect x="572" y="326" width="90" height="38" rx="9" fill="#2496ED"/>
      <text x="617" y="351" text-anchor="middle" fill="#ffffff" textLength="66" lengthAdjust="spacingAndGlyphs">AGILE</text>
    </g>

    <!-- Productivity -->
    <text x="580" y="420" text-anchor="middle" font-size="18" font-weight="700" fill="#eaf6ff">Productivity &amp; AI Tools</text>
    <g font-size="14" font-weight="700">
      <rect x="350" y="444" width="120" height="38" rx="9" fill="#74aa9c"/>
      <text x="410" y="469" text-anchor="middle" fill="#ffffff" textLength="96" lengthAdjust="spacingAndGlyphs">VS CODE</text>
      <rect x="484" y="444" width="120" height="38" rx="9" fill="#10a37f"/>
      <text x="544" y="469" text-anchor="middle" fill="#ffffff" textLength="96" lengthAdjust="spacingAndGlyphs">CHATGPT</text>
      <rect x="618" y="444" width="100" height="38" rx="9" fill="#4285F4"/>
      <text x="668" y="469" text-anchor="middle" fill="#ffffff" textLength="76" lengthAdjust="spacingAndGlyphs">GEMINI</text>
      <rect x="732" y="444" width="100" height="38" rx="9" fill="#00c28c"/>
      <text x="782" y="469" text-anchor="middle" fill="#1a1a1a" textLength="76" lengthAdjust="spacingAndGlyphs">CLAUDE</text>
    </g>

  </g>
</svg>
